<?xml version="1.0" encoding="UTF-8" standalone="no"?><svg xmlns="http://www.w3.org/2000/svg" xmlns:xlink="http://www.w3.org/1999/xlink" contentScriptType="text/ecmascript" fill="#000000" width="500.2" zoomAndPan="magnify" contentStyleType="text/css" viewBox="0.0 0.0 500.2 373.7" height="373.7" preserveAspectRatio="xMidYMid meet" version="1"><g id="change1_1"><path fill="#f3bcbb" d="M301.33,113.54l-51.17,81.47L199,113.54c0,0,3.82-74.12,51.17-113.54 C297.51,39.42,301.33,113.54,301.33,113.54z"/></g><g id="change2_1"><path fill="#f3bcbb" d="M250.16,288.49c0,0-0.02-0.07-0.05-0.18c-0.03,0.11-0.05,0.18-0.05,0.18 C97.25,179.95,186.01,30.43,186.01,30.43c36.84,45.53,55.41,91.87,64.11,132.5c8.7-40.62,27.27-86.97,64.11-132.5 C314.22,30.43,402.98,179.95,250.16,288.49z"/></g><g id="change3_1"><path fill="#f3bcbb" d="M250.07,288.49C35.5,288.49,88.76,77.88,88.76,77.88C228.45,179.36,250.07,288.49,250.07,288.49z M250.16,288.49c214.56,0,161.31-210.61,161.31-210.61C271.77,179.36,250.16,288.49,250.16,288.49z"/></g><g id="change4_1"><path fill="#f3bcbb" d="M0,247.24c145.87-44.84,250.07,41.26,250.07,41.26C128.89,373.67,0,247.24,0,247.24z M500.23,247.24 c-145.87-44.84-250.07,41.26-250.07,41.26C371.34,373.67,500.23,247.24,500.23,247.24z"/></g></svg>